<svg xmlns="http://www.w3.org/2000/svg" width="500" height="500" style="">
  
<g class="currentLayer" style=""><title>Layer 1</title>
  <polygon points="285.98602034179686,484.2838163408203 297.583218828125,459.1564170154495 111.8282139453125,461.92781706179807 " fill="#964B00" id="svg_1"/>
  <polygon points="133.33555621875,439.021653597168 297.64375934375005,459.37845386724854 111.88035602343751,462.33285402517697 " fill="#964B00" id="svg_2"/>
  <g id="svg_3">
    <polygon fill="#EF161F" points="200,200 300,200 200,300 " stroke-width="0" id="svg_4"/>
    <polygon fill="#EF161F" points="200,300 300,200 300,300 " stroke-width="0" id="svg_5"/>
    <g stroke-width="0" id="svg_6">
      <g stroke-width="0" id="svg_7">
        <g stroke-width="0" id="svg_8">
          <polygon fill="#EF161F" points="250,114.64466094067262 285.3553390593274,150 214.64466094067262,150 " stroke-width="0" id="svg_9"/>
          <polygon fill="#EF161F" points="214.64466094067262,150 285.3553390593274,150 250,185.35533905932738 " stroke-width="0" id="svg_10"/>
        </g>
      </g>
    </g>
    <g stroke-width="0" id="svg_11">
      <g stroke-width="0" id="svg_12">
        <polygon fill="#EF161F" points="200.26179947647154,298.34139849112034 224.18659994284212,297.7245985398531 211.39320003678202,368.58700141060353 " stroke-width="0" id="svg_13"/>
        <polygon fill="#EF161F" points="211.3411999902308,365.4112017238617 223.83240071881414,298.14039903244975 236.37680093015433,359.07640113339426 " stroke-width="0" id="svg_14"/>
      </g>
      <g stroke-width="0" id="svg_15">
        <g stroke-width="0" id="svg_16">
          <polygon fill="#EF161F" points="210.2270000014752,365.017997480154 235.3632007563591,359.0911982334137 160.55499804250894,414.63800019574165 " stroke-width="0" id="svg_17"/>
          <polygon fill="#EF161F" points="159.54139939459264,414.2834001335859 236.410199368152,357.98839972767837 196.87799968239665,427.9724009979725 " stroke-width="0" id="svg_18"/>
          <polygon points="147.90441029071926,453.30455477994803 160.71100838194306,414.4731524610174 184.5062083214801,455.90075468169573 " style="" stroke-width="0" id="svg_19"/>
          <polygon points="184.4012678345648,456.2452772968018 160.20086464191945,414.3262751962149 195.56206512001427,427.4788754350388 " style="" stroke-width="0" id="svg_20"/>
        </g>
      </g>
    </g>
    <g stroke-width="0" id="svg_21">
      <g stroke-width="0" id="svg_22">
        <polygon fill="#EF161F" points="273.2343991642356,299.8161986595869 299.3085999922246,297.9369963144063 297.40199977460503,362.39200070667266 " stroke-width="0" id="svg_23"/>
        <polygon fill="#EF161F" points="296.9876000491917,361.45420083420277 299.0552003302455,298.34859911396507 318.75939984261095,360.1930000699758 " stroke-width="0" id="svg_24"/>
      </g>
      <g stroke-width="0" id="svg_25">
        <g stroke-width="0" id="svg_26">
          <polygon fill="#EF161F" points="297.05120020883083,360.0259974648952 317.6049991906434,360.23359787597656 251.23999881207942,424.212200729537 " stroke-width="0" id="svg_27"/>
          <polygon fill="#EF161F" points="250.4850000215322,424.34300098192693 318.7142002569765,359.163199884224 288.45239999372365,435.00620216553216 " stroke-width="0" id="svg_28"/>
        </g>
      </g>
    </g>
    <g stroke-width="0" id="svg_29">
      <g stroke-width="0" id="svg_30">
        <polygon fill="#EF161F" points="129.9999988079071,199.9999998509884 190.0000011920929,199.9999998509884 129.9999988079071,220.0000001490116 " stroke-width="0" id="svg_31"/>
        <polygon fill="#EF161F" points="129.9999988079071,220.0000001490116 190.0000011920929,199.9999998509884 190.0000011920929,220.0000001490116 " stroke-width="0" id="svg_32"/>
      </g>
      <g stroke-width="0" id="svg_33">
        <g stroke-width="0" id="svg_34">
          <polygon fill="#EF161F" points="59.999998807907104,199.9999998509884 120.0000011920929,199.9999998509884 59.999998807907104,220.0000001490116 " stroke-width="0" id="svg_35"/>
          <polygon fill="#EF161F" points="59.999998807907104,220.0000001490116 120.0000011920929,199.9999998509884 120.0000011920929,220.0000001490116 " stroke-width="0" id="svg_36"/>
        </g>
      </g>
    </g>
    <g stroke-width="0" id="svg_37">
      <g stroke-width="0" id="svg_38">
        <polygon fill="#EF161F" points="309.9999988079071,199.9999998509884 370.0000011920929,199.9999998509884 309.9999988079071,220.0000001490116 " stroke-width="0" id="svg_39"/>
        <polygon fill="#EF161F" points="309.9999988079071,220.0000001490116 370.0000011920929,199.9999998509884 370.0000011920929,220.0000001490116 " stroke-width="0" id="svg_40"/>
      </g>
      <g stroke-width="0" id="svg_41">
        <g stroke-width="0" id="svg_42">
          <polygon fill="#EF161F" points="379.9999988079071,199.9999998509884 440.0000011920929,199.9999998509884 379.9999988079071,220.0000001490116 " stroke-width="0" id="svg_43"/>
          <polygon fill="#EF161F" points="379.9999988079071,220.0000001490116 440.0000011920929,199.9999998509884 440.0000011920929,220.0000001490116 " stroke-width="0" id="svg_44"/>
        </g>
      </g>
    </g>
  </g>
  <polygon points="264.78363692773434,465.9618010732422 250.98643844140622,424.51020080773924 288.44683883203123,435.0222009393463 " style="" id="svg_45"/>
  <polygon points="239.54146760937502,460.62239331127927 251.4972659492188,424.0391932380371 264.8424685859375,465.3059931647949 " style="" id="svg_46"/>
</g>

</svg>